<svg width="150" height="142" viewBox="0 0 150 142" fill="none" xmlns="http://www.w3.org/2000/svg">
<path d="M147.651 53.7009C148.386 54.5593 149.054 55.4033 149.674 56.2814C149.874 56.5652 149.948 56.9386 150 57.3122C147.09 55.0986 144.253 52.8529 141.432 50.5864C138.856 48.5174 136.317 46.4029 133.712 44.3723C133.377 44.1113 132.662 44.044 132.261 44.2133C130.466 44.9702 128.694 45.7935 126.97 46.7006C126.142 47.1363 125.721 46.9186 125.2 46.252C121.082 40.9843 116.933 35.7404 112.792 30.4899C112.646 30.3048 112.49 30.128 112.228 29.8159C110.728 30.8594 109.244 31.8919 107.607 33.0301C102.784 28.627 97.947 24.2124 93.1106 19.7977C88.2623 15.3722 83.4141 10.9467 78.4631 6.42738C77.2374 7.58416 76.0541 8.68674 74.8864 9.80567C70.8914 13.634 66.8899 17.4557 62.9232 21.3131C62.3262 21.8936 61.8516 22.0631 61.0716 21.6613C59.6936 20.9516 58.2291 20.4096 56.8537 19.6955C56.1254 19.3173 55.7217 19.3748 55.1657 20.016C50.5763 25.3082 45.9221 30.5442 41.345 35.8467C40.5409 36.7783 39.8309 37.1394 38.6108 36.6984C37.0063 36.1186 35.342 35.6853 33.6775 35.3013C33.1309 35.1752 32.4005 35.219 31.9285 35.4894C23.8142 40.1374 15.7312 44.8403 7.63125 49.5135C5.53837 50.7209 3.4107 51.8681 1.18789 53.1538C0.742174 53.4463 0.407579 53.628 0.059271 53.6977C0.0303705 53.4364 0.0151846 53.2869 0 53.1374C0.271343 52.921 0.542684 52.7045 0.88494 52.4595C5.39812 49.2928 9.84039 46.1546 14.3323 42.9501C14.5317 42.7824 14.6815 42.681 14.8545 42.5151C17.297 40.7898 19.7267 39.144 22.133 37.4646C25.2013 35.3231 28.2313 33.126 31.3285 31.0278C31.8008 30.7078 32.5892 30.5994 33.1575 30.7258C34.668 31.0616 36.1515 31.5397 37.6183 32.0412C38.3362 32.2867 38.7716 32.136 39.2595 31.5674C44.0287 26.009 48.8494 20.4945 53.5898 14.9118C54.3877 13.9721 54.9421 13.8998 55.9016 14.6149C57.3338 15.6821 58.87 16.6097 60.3386 17.5812C66.2424 11.7207 72.1081 5.89795 78.0495 0C88.2889 9.20853 98.4321 18.3306 108.675 27.5423C110.508 25.9136 112.306 24.3157 114.199 22.6337C115.655 24.8596 117.05 26.9825 118.436 29.1111C120.998 33.0468 123.584 36.9683 126.094 40.937C126.652 41.8195 127.139 41.9638 128.078 41.5486C129.969 40.7129 131.931 40.0417 133.834 39.2309C134.571 38.9165 134.99 38.9895 135.536 39.6358C139.517 44.3484 143.55 49.0172 147.651 53.7009Z" fill="black"/>
<path d="M72.8554 62.2796C72.8554 73.6681 72.8389 84.9372 72.8805 96.2061C72.8847 97.3567 72.5682 97.7503 71.4167 97.6565C70.2365 97.5603 69.0423 97.6352 67.7149 97.6352C67.7149 84.4976 67.7149 71.4611 67.7149 58.2908C67.2083 58.2544 66.8308 58.2045 66.4532 58.2037C63.2278 58.1968 60.0024 58.1869 56.777 58.2009C52.5492 58.2193 49.4443 61.2445 49.4157 65.3489C49.3866 69.5104 52.4917 72.5702 56.7811 72.6017C57.9358 72.6102 59.0908 72.6163 60.2453 72.6C60.7934 72.5923 61.1713 72.6874 61.1596 73.3674C61.135 74.795 61.1522 76.2233 61.1522 77.863C59.6595 77.863 58.2477 77.8368 56.8372 77.8687C54.157 77.9291 51.854 78.8882 50.541 81.2902C49.8843 82.4916 49.5158 83.9793 49.4601 85.3555C49.3136 88.9731 49.4121 92.6007 49.4072 96.2243C49.4066 96.6509 49.3695 97.0775 49.3463 97.5667C47.5861 97.5667 45.934 97.5667 44.2607 97.5667C44.2012 97.3723 44.1161 97.224 44.1164 97.076C44.1249 92.8562 44.0599 88.634 44.1835 84.4174C44.2839 80.9949 45.7629 78.1325 48.2909 75.8197C48.4082 75.7124 48.523 75.6013 48.6281 75.4824C48.6783 75.4257 48.703 75.3464 48.6913 75.3687C47.7015 74.081 46.6021 72.912 45.8011 71.5655C41.2594 63.931 46.3946 53.6411 55.2409 53.0586C61.0259 52.6777 66.8563 52.9867 72.8554 52.9867C72.8554 56.0633 72.8554 59.1117 72.8554 62.2796Z" fill="black"/>
<path d="M103.494 59.6858C107.661 68.3992 101.764 77.8143 92.1971 77.8613C90.8085 77.8681 89.4199 77.8622 87.9465 77.8622C87.9465 76.1096 87.9465 74.4606 87.9465 72.6007C89.5518 72.6007 91.1269 72.6337 92.7001 72.5939C96.1548 72.5063 99.0055 69.9727 99.5403 66.5583C100.163 62.581 97.5708 58.6892 93.5675 58.35C89.5837 58.0124 85.5489 58.276 81.3951 58.276C81.3951 71.3659 81.3951 84.4101 81.3951 97.5444C79.6057 97.5444 77.9561 97.5444 76.2058 97.5444C76.2058 82.7302 76.2058 67.9362 76.2058 53.0102C76.5571 52.9875 76.9348 52.9423 77.3125 52.9419C82.2912 52.9374 87.27 52.9196 92.2486 52.945C97.2758 52.9707 100.989 55.2502 103.494 59.6858Z" fill="black"/>
<path d="M63.095 30.0417C60.1505 31.6752 57.2735 33.3637 54.4053 35.0671C52.9001 35.9611 51.4177 36.8937 49.9082 37.7803C49.5521 37.9895 49.1283 38.0833 48.7356 38.2303C48.6769 38.1458 48.6181 38.0614 48.5593 37.977C58.2446 28.4237 67.9299 18.8704 77.7351 9.19885C85.628 15.9446 93.4845 22.6592 101.341 29.3737C101.228 29.525 101.115 29.6763 101.002 29.8276C95.2185 26.1677 89.435 22.5077 83.5295 18.7706C82.8909 21.1742 82.3013 23.3933 81.6417 25.8756C79.6806 23.8258 77.8411 21.903 75.742 19.709C75.742 23.4399 75.742 26.8175 75.742 30.5069C73.2533 28.7615 71.0257 27.1993 68.5862 25.4884C67.6062 29.8082 66.6629 33.9669 65.6495 38.4342C64.7633 35.461 63.9647 32.7819 63.095 30.0417Z" fill="black"/>
<path d="M110.95 32.421C111.331 32.2101 111.636 32.0428 112.012 31.8373C114.036 34.4749 116.016 37.0553 118.176 39.8712C116.841 39.5488 115.786 39.2941 114.602 39.0083C114.602 40.2715 114.602 41.4064 114.602 42.5413C114.509 42.5956 114.416 42.6499 114.323 42.7042C113.103 41.3059 111.883 39.9076 110.551 38.381C108.253 41.8972 106.031 45.2982 103.808 48.6992C103.732 48.6721 103.656 48.645 103.58 48.618C103.58 44.8937 103.564 41.1692 103.61 37.4456C103.614 37.1547 104.002 36.7865 104.301 36.5946C106.479 35.1978 108.68 33.8369 110.95 32.421Z" fill="black"/>
<path d="M33.3003 36.9005C35.9806 38.4473 38.799 39.5922 41.2257 41.3907C41.1783 41.5136 41.1308 41.6365 41.0833 41.7594C39.7272 41.4893 38.3711 41.2197 37.0151 40.9492C35.962 40.7391 34.8964 40.5759 33.8601 40.3022C33.0284 40.0824 32.6332 40.3822 32.3162 41.1279C31.6182 42.77 30.8466 44.3809 29.9935 46.2489C29.394 44.9746 28.8977 43.9196 28.3389 42.7318C24.4299 44.7543 20.5915 46.7403 16.753 48.7263C16.6851 48.5978 16.6171 48.4693 16.5492 48.3408C18.8454 46.6881 21.1424 45.0365 23.4377 43.3826C26.3106 41.3125 29.1747 39.2299 32.0653 37.1849C32.3728 36.9673 32.8321 36.9642 33.3003 36.9005Z" fill="black"/>
<path d="M56.3766 21.9508C57.7125 22.6357 58.9713 23.2777 60.2301 23.9196C60.2202 24.0016 60.2104 24.0836 60.2005 24.1656C59.0926 24.3465 57.9703 24.468 56.8817 24.7296C56.1768 24.899 55.4335 25.154 54.8587 25.5766C52.66 27.1931 50.5263 28.8979 48.3553 30.5528C48.1735 30.6914 47.8952 30.7036 47.4865 30.8279C47.625 30.4959 47.6494 30.3349 47.7405 30.234C50.1335 27.5811 52.5383 24.9388 54.9275 22.2823C55.3222 21.8435 55.6756 21.427 56.3766 21.9508Z" fill="black"/>
<path d="M133.3 46.131C135.264 48.0055 137.165 49.824 139.066 51.6426C138.99 51.7605 138.913 51.8785 138.837 51.9964C135.103 50.1375 131.37 48.2781 127.055 48.2394C127.042 48.0708 127.029 47.9022 127.015 47.7336C129.089 47.1807 131.164 46.6279 133.3 46.131Z" fill="black"/>
<path d="M18.5553 123.526H17.3193V126.67H15.8673V118.27H18.8913C19.5633 118.27 20.1233 118.398 20.5713 118.654C21.0193 118.902 21.3473 119.23 21.5553 119.638C21.7713 120.038 21.8793 120.466 21.8793 120.922C21.8793 121.482 21.7233 121.99 21.4113 122.446C21.0993 122.894 20.6313 123.206 20.0073 123.382L21.9993 126.67H20.4633L18.5553 123.526ZM17.3193 122.326H18.6753C19.1793 122.326 19.6033 122.218 19.9473 122.002C20.2913 121.786 20.4633 121.426 20.4633 120.922C20.4633 120.418 20.2913 120.066 19.9473 119.866C19.6113 119.658 19.1873 119.554 18.6753 119.554H17.3193V122.326ZM29.5164 126.79C28.4684 126.79 27.6364 126.474 27.0204 125.842C26.4044 125.202 26.0964 124.25 26.0964 122.986V118.27H27.5484V122.902C27.5484 123.574 27.6844 124.158 27.9564 124.654C28.2284 125.15 28.7484 125.398 29.5164 125.398C30.2604 125.398 30.7724 125.15 31.0524 124.654C31.3324 124.158 31.4724 123.574 31.4724 122.902V118.27H32.9004V122.986C32.9004 124.25 32.5924 125.202 31.9764 125.842C31.3684 126.474 30.5484 126.79 29.5164 126.79ZM40.3115 126.778C39.6475 126.778 39.0755 126.646 38.5955 126.382C38.1235 126.11 37.7635 125.762 37.5155 125.338C37.2755 124.906 37.1555 124.458 37.1555 123.994V123.922H38.7515V123.994C38.7515 124.218 38.8075 124.446 38.9195 124.678C39.0315 124.902 39.2035 125.094 39.4355 125.254C39.6755 125.406 39.9755 125.482 40.3355 125.482C40.7675 125.482 41.1235 125.37 41.4035 125.146C41.6835 124.922 41.8235 124.622 41.8235 124.246C41.8235 123.926 41.7115 123.67 41.4875 123.478C41.2715 123.286 40.9995 123.158 40.6715 123.094L39.5795 122.878C39.0595 122.766 38.5595 122.546 38.0795 122.218C37.6075 121.882 37.3715 121.322 37.3715 120.538C37.3715 120.042 37.4915 119.61 37.7315 119.242C37.9795 118.874 38.3155 118.594 38.7395 118.402C39.1715 118.202 39.6675 118.102 40.2275 118.102C40.8595 118.102 41.3995 118.226 41.8475 118.474C42.3035 118.722 42.6475 119.042 42.8795 119.434C43.1115 119.826 43.2275 120.238 43.2275 120.67V120.718H41.6315V120.682C41.6315 120.49 41.5835 120.29 41.4875 120.082C41.3995 119.874 41.2435 119.698 41.0195 119.554C40.8035 119.41 40.5195 119.338 40.1675 119.338C39.7595 119.338 39.4355 119.45 39.1955 119.674C38.9555 119.898 38.8355 120.182 38.8355 120.526C38.8355 120.838 38.9435 121.086 39.1595 121.27C39.3755 121.454 39.6555 121.582 39.9995 121.654L41.0435 121.87C41.6595 121.998 42.1955 122.242 42.6515 122.602C43.1155 122.954 43.3475 123.49 43.3475 124.21C43.3475 124.714 43.2155 125.162 42.9515 125.554C42.6955 125.938 42.3355 126.238 41.8715 126.454C41.4155 126.67 40.8955 126.778 40.3115 126.778ZM50.6592 126.778C49.9952 126.778 49.4232 126.646 48.9432 126.382C48.4712 126.11 48.1112 125.762 47.8632 125.338C47.6232 124.906 47.5032 124.458 47.5032 123.994V123.922H49.0992V123.994C49.0992 124.218 49.1552 124.446 49.2672 124.678C49.3792 124.902 49.5512 125.094 49.7832 125.254C50.0232 125.406 50.3232 125.482 50.6832 125.482C51.1152 125.482 51.4712 125.37 51.7512 125.146C52.0312 124.922 52.1712 124.622 52.1712 124.246C52.1712 123.926 52.0592 123.67 51.8352 123.478C51.6192 123.286 51.3472 123.158 51.0192 123.094L49.9272 122.878C49.4072 122.766 48.9072 122.546 48.4272 122.218C47.9552 121.882 47.7192 121.322 47.7192 120.538C47.7192 120.042 47.8392 119.61 48.0792 119.242C48.3272 118.874 48.6632 118.594 49.0872 118.402C49.5192 118.202 50.0152 118.102 50.5752 118.102C51.2072 118.102 51.7472 118.226 52.1952 118.474C52.6512 118.722 52.9952 119.042 53.2272 119.434C53.4592 119.826 53.5752 120.238 53.5752 120.67V120.718H51.9792V120.682C51.9792 120.49 51.9312 120.29 51.8352 120.082C51.7472 119.874 51.5912 119.698 51.3672 119.554C51.1512 119.41 50.8672 119.338 50.5152 119.338C50.1072 119.338 49.7832 119.45 49.5432 119.674C49.3032 119.898 49.1832 120.182 49.1832 120.526C49.1832 120.838 49.2912 121.086 49.5072 121.27C49.7232 121.454 50.0032 121.582 50.3472 121.654L51.3912 121.87C52.0072 121.998 52.5432 122.242 52.9992 122.602C53.4632 122.954 53.6952 123.49 53.6952 124.21C53.6952 124.714 53.5632 125.162 53.2992 125.554C53.0432 125.938 52.6832 126.238 52.2192 126.454C51.7632 126.67 51.2432 126.778 50.6592 126.778ZM63.6765 119.554H61.3365V126.67H59.8845V119.554H57.5445V118.27H63.6765V119.554ZM71.2293 126.766C70.4133 126.766 69.7173 126.578 69.1413 126.202C68.5653 125.826 68.1293 125.314 67.8333 124.666C67.5373 124.01 67.3893 123.274 67.3893 122.458C67.3893 121.642 67.5373 120.906 67.8333 120.25C68.1293 119.586 68.5653 119.062 69.1413 118.678C69.7253 118.294 70.4213 118.102 71.2293 118.102C72.0293 118.102 72.7173 118.294 73.2933 118.678C73.8693 119.062 74.3053 119.582 74.6013 120.238C74.8973 120.894 75.0453 121.634 75.0453 122.458C75.0453 123.274 74.8973 124.01 74.6013 124.666C74.3053 125.314 73.8693 125.826 73.2933 126.202C72.7173 126.578 72.0293 126.766 71.2293 126.766ZM71.2293 125.446C71.9413 125.446 72.4973 125.166 72.8973 124.606C73.2973 124.046 73.4973 123.322 73.4973 122.434C73.4973 121.866 73.4093 121.354 73.2333 120.898C73.0573 120.442 72.7973 120.082 72.4533 119.818C72.1173 119.546 71.7093 119.41 71.2293 119.41C70.7493 119.41 70.3373 119.546 69.9933 119.818C69.6493 120.082 69.3853 120.446 69.2013 120.91C69.0253 121.366 68.9373 121.878 68.9373 122.446C68.9373 123.014 69.0253 123.526 69.2013 123.982C69.3773 124.43 69.6373 124.786 69.9813 125.05C70.3253 125.314 70.7413 125.446 71.2293 125.446ZM82.0475 123.526H80.8115V126.67H79.3595V118.27H82.3835C83.0555 118.27 83.6155 118.398 84.0635 118.654C84.5115 118.902 84.8395 119.23 85.0475 119.638C85.2635 120.038 85.3715 120.466 85.3715 120.922C85.3715 121.482 85.2155 121.99 84.9035 122.446C84.5915 122.894 84.1235 123.206 83.4995 123.382L85.4915 126.67H83.9555L82.0475 123.526ZM80.8115 122.326H82.1675C82.6715 122.326 83.0955 122.218 83.4395 122.002C83.7835 121.786 83.9555 121.426 83.9555 120.922C83.9555 120.418 83.7835 120.066 83.4395 119.866C83.1035 119.658 82.6795 119.554 82.1675 119.554H80.8115V122.326ZM93.9692 124.474H90.9092L90.1652 126.67H88.6892L91.7612 118.27H93.1292L96.2012 126.67H94.7252L93.9692 124.474ZM93.5852 123.346L92.4572 120.082H92.3972L91.2932 123.346H93.5852ZM105.149 119.554H102.809V126.67H101.357V119.554H99.0171V118.27H105.149V119.554ZM109.408 118.27H110.872V126.67H109.408V118.27ZM119.065 126.766C118.249 126.766 117.553 126.578 116.977 126.202C116.401 125.826 115.965 125.314 115.669 124.666C115.373 124.01 115.225 123.274 115.225 122.458C115.225 121.642 115.373 120.906 115.669 120.25C115.965 119.586 116.401 119.062 116.977 118.678C117.561 118.294 118.257 118.102 119.065 118.102C119.865 118.102 120.553 118.294 121.129 118.678C121.705 119.062 122.141 119.582 122.437 120.238C122.733 120.894 122.881 121.634 122.881 122.458C122.881 123.274 122.733 124.01 122.437 124.666C122.141 125.314 121.705 125.826 121.129 126.202C120.553 126.578 119.865 126.766 119.065 126.766ZM119.065 125.446C119.777 125.446 120.333 125.166 120.733 124.606C121.133 124.046 121.333 123.322 121.333 122.434C121.333 121.866 121.245 121.354 121.069 120.898C120.893 120.442 120.633 120.082 120.289 119.818C119.953 119.546 119.545 119.41 119.065 119.41C118.585 119.41 118.173 119.546 117.829 119.818C117.485 120.082 117.221 120.446 117.037 120.91C116.861 121.366 116.773 121.878 116.773 122.446C116.773 123.014 116.861 123.526 117.037 123.982C117.213 124.43 117.473 124.786 117.817 125.05C118.161 125.314 118.577 125.446 119.065 125.446ZM127.195 118.27H128.875L132.655 124.402H132.691V118.27H134.131V126.682H132.451L128.683 120.682H128.635V126.682H127.195V118.27ZM41.4968 132.27C42.1688 132.27 42.7288 132.406 43.1768 132.678C43.6248 132.95 43.9528 133.302 44.1608 133.734C44.3768 134.166 44.4848 134.626 44.4848 135.114C44.4848 135.602 44.3808 136.062 44.1728 136.494C43.9648 136.918 43.6368 137.262 43.1888 137.526C42.7408 137.79 42.1768 137.922 41.4968 137.922H39.9008V140.67H38.4728V132.27H41.4968ZM41.2808 136.71C41.7848 136.71 42.2088 136.59 42.5528 136.35C42.8968 136.102 43.0688 135.69 43.0688 135.114C43.0688 134.546 42.8968 134.146 42.5528 133.914C42.2168 133.674 41.7928 133.554 41.2808 133.554H39.9008V136.71H41.2808ZM52.813 138.474H49.753L49.009 140.67H47.533L50.605 132.27H51.973L55.045 140.67H53.569L52.813 138.474ZM52.429 137.346L51.301 134.082H51.241L50.137 137.346H52.429ZM59.1581 132.27H60.6221V140.67H59.1581V132.27ZM65.297 132.27H66.977L70.757 138.402H70.793V132.27H72.233V140.682H70.553L66.785 134.682H66.737V140.682H65.297V132.27ZM82.6022 133.554H80.2622V140.67H78.8102V133.554H76.4702V132.27H82.6022V133.554ZM86.8612 132.27H88.3252V140.67H86.8612V132.27ZM93.0001 132.27H94.6801L98.4601 138.402H98.4961V132.27H99.9361V140.682H98.2561L94.4881 134.682H94.4401V140.682H93.0001V132.27ZM107.893 140.766C107.093 140.766 106.417 140.562 105.865 140.154C105.321 139.738 104.917 139.202 104.653 138.546C104.389 137.89 104.257 137.194 104.257 136.458C104.257 135.706 104.393 134.998 104.665 134.334C104.937 133.67 105.357 133.134 105.925 132.726C106.493 132.31 107.197 132.102 108.037 132.102C108.981 132.102 109.749 132.362 110.341 132.882C110.941 133.402 111.361 134.066 111.601 134.874H110.065C109.929 134.41 109.693 134.046 109.357 133.782C109.021 133.518 108.585 133.386 108.049 133.386C107.313 133.386 106.741 133.666 106.333 134.226C105.933 134.786 105.733 135.538 105.733 136.482C105.733 137.458 105.941 138.218 106.357 138.762C106.781 139.306 107.365 139.578 108.109 139.578C108.765 139.578 109.273 139.382 109.633 138.99C110.001 138.59 110.193 138.094 110.209 137.502V137.262H108.253V136.194H111.613V140.67H110.509V139.374H110.413C110.269 139.662 110.013 139.966 109.645 140.286C109.277 140.606 108.693 140.766 107.893 140.766Z" fill="black"/>
</svg>
