<svg width="256" height="53" viewBox="0 0 256 53" fill="none" xmlns="http://www.w3.org/2000/svg">
<g clip-path="url(#clip0_20_2604)">
<path d="M78.7473 28.6405C79.139 29.0983 79.4954 29.5484 79.8261 30.0167C79.9329 30.1681 79.9722 30.3673 80 30.5665C78.4481 29.3859 76.9347 28.1882 75.4302 26.9794C74.0568 25.8759 72.7025 24.7482 71.3132 23.6653C71.1346 23.526 70.7531 23.4901 70.5391 23.5804C69.5818 23.9841 68.6366 24.4232 67.7173 24.907C67.2757 25.1394 67.0514 25.0233 66.7735 24.6677C64.5769 21.8583 62.3642 19.0615 60.1559 16.2613C60.0781 16.1625 59.9945 16.0682 59.8548 15.9018C59.0548 16.4584 58.2632 17.009 57.3906 17.6161C54.8179 15.2678 52.2384 12.9133 49.659 10.5588C47.0732 8.19853 44.4875 5.83824 41.847 3.42793C41.1933 4.04488 40.5622 4.63293 39.9394 5.22969C37.8087 7.27144 35.6746 9.30969 33.559 11.367C33.2406 11.6766 32.9875 11.767 32.5715 11.5527C31.8366 11.1742 31.0555 10.8851 30.322 10.5043C29.9336 10.3026 29.7182 10.3332 29.4217 10.6752C26.974 13.4977 24.4918 16.2902 22.0507 19.1183C21.6218 19.6151 21.2432 19.8077 20.5924 19.5725C19.7367 19.2633 18.8491 19.0322 17.9613 18.8274C17.6698 18.7601 17.2803 18.7835 17.0286 18.9277C12.7009 21.4066 8.39 23.9148 4.07 26.4072C2.9538 27.0512 1.81904 27.663 0.633541 28.3487C0.395826 28.5047 0.217376 28.6016 0.0316112 28.6388C0.0161976 28.4994 0.00809846 28.4197 0 28.3399C0.144716 28.2245 0.289431 28.1091 0.471968 27.9784C2.879 26.2895 5.24821 24.6158 7.64387 22.9067C7.75022 22.8173 7.83013 22.7632 7.92239 22.6747C9.22504 21.7546 10.5209 20.8768 11.8042 19.9811C13.4407 18.839 15.0567 17.6672 16.7086 16.5481C16.9604 16.3775 17.3809 16.3197 17.684 16.3871C18.4896 16.5662 19.2808 16.8212 20.0631 17.0887C20.446 17.2196 20.6782 17.1392 20.9384 16.8359C23.482 13.8715 26.053 10.9304 28.5812 7.95297C29.0068 7.4518 29.3024 7.41321 29.8142 7.79459C30.578 8.3638 31.3974 8.85851 32.1806 9.37666C35.3293 6.25101 38.4576 3.14557 41.6264 0C47.0874 4.91122 52.4971 9.77631 57.96 14.6892C58.9375 13.8206 59.8964 12.9684 60.9059 12.0713C61.6827 13.2584 62.4266 14.3907 63.1658 15.5259C64.5325 17.625 65.9113 19.7164 67.2502 21.8331C67.5479 22.3037 67.8075 22.3807 68.3084 22.1593C69.3167 21.7135 70.3634 21.3556 71.378 20.9231C71.7713 20.7555 71.9949 20.7944 72.2861 21.1391C74.4092 23.6525 76.56 26.1425 78.7473 28.6405Z" fill="black"/>
<path d="M38.8563 33.2158C38.8562 39.2897 38.8475 45.2999 38.8696 51.31C38.8719 51.9236 38.7031 52.1335 38.089 52.0835C37.4595 52.0322 36.8226 52.0721 36.1147 52.0721C36.1147 45.0654 36.1147 38.1127 36.1147 31.0885C35.8445 31.0691 35.6431 31.0425 35.4418 31.042C33.7216 31.0383 32.0013 31.0331 30.2811 31.0405C28.0263 31.0503 26.3703 32.6638 26.3551 34.8528C26.3396 37.0723 27.9956 38.7042 30.2833 38.7209C30.8991 38.7255 31.5151 38.7287 32.1309 38.72C32.4232 38.7159 32.6248 38.7666 32.6185 39.1293C32.6054 39.8907 32.6145 40.6525 32.6145 41.527C31.8185 41.527 31.0655 41.513 30.3132 41.53C28.8838 41.5623 27.6555 42.0737 26.9553 43.3548C26.605 43.9956 26.4085 44.789 26.3788 45.523C26.3006 47.4524 26.3532 49.3871 26.3505 51.3197C26.3502 51.5472 26.3304 51.7747 26.3181 52.0356C25.3793 52.0356 24.4982 52.0356 23.6057 52.0356C23.574 51.9319 23.5286 51.8529 23.5288 51.7739C23.5333 49.5234 23.4987 47.2715 23.5646 45.0227C23.6181 43.1974 24.4069 41.6707 25.7552 40.4372C25.8177 40.38 25.879 40.3207 25.935 40.2573C25.9618 40.2271 25.975 40.1848 25.9687 40.1967C25.4408 39.5099 24.8545 38.8864 24.4273 38.1683C22.0051 34.0966 24.7439 28.6086 29.4619 28.298C32.5472 28.0948 35.6567 28.2596 38.8563 28.2596C38.8563 29.9005 38.8563 31.5263 38.8563 33.2158Z" fill="black"/>
<path d="M55.1969 31.8324C57.4192 36.4796 54.2739 41.501 49.1718 41.526C48.4312 41.5297 47.6906 41.5265 46.9048 41.5265C46.9048 40.5918 46.9048 39.7124 46.9048 38.7204C47.7609 38.7204 48.601 38.738 49.44 38.7168C51.2825 38.6701 52.8029 37.3188 53.0881 35.4978C53.4204 33.3766 52.0378 31.3009 49.9026 31.12C47.7779 30.94 45.626 31.0806 43.4107 31.0806C43.4107 38.0618 43.4107 45.0188 43.4107 52.0237C42.4564 52.0237 41.5766 52.0237 40.6431 52.0237C40.6431 44.1228 40.6431 36.2326 40.6431 28.2721C40.8304 28.26 41.0319 28.2359 41.2333 28.2357C43.8886 28.2333 46.544 28.2238 49.1992 28.2374C51.8804 28.2511 53.8606 29.4668 55.1969 31.8324Z" fill="black"/>
<path d="M33.6507 16.0222C32.0802 16.8934 30.5459 17.7939 29.0162 18.7024C28.2134 19.1792 27.4228 19.6766 26.6177 20.1494C26.4278 20.261 26.2018 20.3111 25.9923 20.3894C25.961 20.3444 25.9297 20.2994 25.8983 20.2544C31.0638 15.1593 36.2293 10.0642 41.4587 4.90601C45.6683 8.50374 49.8584 12.0848 54.0485 15.6659C53.9882 15.7466 53.928 15.8273 53.8677 15.908C50.7832 13.956 47.6987 12.0041 44.5491 10.0109C44.2085 11.2928 43.894 12.4764 43.5422 13.8003C42.4963 12.707 41.5152 11.6816 40.3957 10.5114C40.3957 12.5012 40.3957 14.3026 40.3957 16.2703C39.0684 15.3394 37.8804 14.5062 36.5793 13.5938C36.0567 15.8976 35.5535 18.1156 35.0131 20.4982C34.5404 18.9125 34.1145 17.4836 33.6507 16.0222Z" fill="black"/>
<path d="M59.173 17.2912C59.3763 17.1787 59.5393 17.0895 59.7395 16.9799C60.8189 18.3866 61.8749 19.7628 63.0273 21.2646C62.3151 21.0927 61.7525 20.9568 61.121 20.8044C61.121 21.4781 61.121 22.0834 61.121 22.6887C61.0714 22.7176 61.0219 22.7466 60.9724 22.7756C60.3216 22.0298 59.6708 21.284 58.9603 20.4698C57.7349 22.3451 56.5496 24.159 55.3643 25.9729C55.3236 25.9584 55.283 25.944 55.2424 25.9296C55.2424 23.9433 55.2339 21.9569 55.2588 19.9709C55.2607 19.8158 55.4675 19.6194 55.6271 19.5171C56.7888 18.7721 57.9627 18.0463 59.173 17.2912Z" fill="black"/>
<path d="M17.7602 19.6803C19.1897 20.5052 20.6928 21.1158 21.9871 22.075C21.9618 22.1406 21.9365 22.2062 21.9112 22.2717C21.1879 22.1277 20.4646 21.9838 19.7415 21.8396C19.1798 21.7275 18.6115 21.6405 18.0588 21.4945C17.6152 21.3773 17.4044 21.5372 17.2354 21.9349C16.8631 22.8107 16.4516 23.6698 15.9966 24.6661C15.6769 23.9865 15.4122 23.4238 15.1141 22.7903C13.0293 23.869 10.9822 24.9282 8.93501 25.9874C8.89877 25.9188 8.86253 25.8503 8.82629 25.7818C10.051 24.9004 11.276 24.0195 12.5002 23.1374C14.0324 22.0333 15.5599 20.9227 17.1016 19.8319C17.2656 19.7159 17.5105 19.7143 17.7602 19.6803Z" fill="black"/>
<path d="M30.0674 11.7071C30.7799 12.0724 31.4513 12.4148 32.1227 12.7572C32.1174 12.8009 32.1122 12.8446 32.1069 12.8883C31.516 12.9848 30.9174 13.0496 30.3368 13.1891C29.9609 13.2795 29.5645 13.4155 29.2579 13.6409C28.0853 14.503 26.9473 15.4122 25.7895 16.2948C25.6925 16.3688 25.5441 16.3753 25.326 16.4416C25.3999 16.2645 25.413 16.1787 25.4615 16.1248C26.7378 14.7099 28.0204 13.3007 29.2946 11.8839C29.5051 11.6499 29.6936 11.4277 30.0674 11.7071Z" fill="black"/>
<path d="M71.0935 24.6031C72.1408 25.6029 73.1548 26.5728 74.1688 27.5427C74.1279 27.6056 74.0871 27.6685 74.0462 27.7314C72.055 26.74 70.0638 25.7483 67.7629 25.7277C67.7557 25.6377 67.7486 25.5478 67.7415 25.4579C68.8477 25.163 69.954 24.8682 71.0935 24.6031Z" fill="black"/>
<path d="M100.592 19.8533H98.944V24.0453H97.008V12.8453H101.04C101.936 12.8453 102.683 13.016 103.28 13.3573C103.877 13.688 104.315 14.1253 104.592 14.6693C104.88 15.2026 105.024 15.7733 105.024 16.3813C105.024 17.128 104.816 17.8053 104.4 18.4133C103.984 19.0106 103.36 19.4266 102.528 19.6613L105.184 24.0453H103.136L100.592 19.8533ZM98.944 18.2533H100.752C101.424 18.2533 101.989 18.1093 102.448 17.8213C102.907 17.5333 103.136 17.0533 103.136 16.3813C103.136 15.7093 102.907 15.24 102.448 14.9733C102 14.696 101.435 14.5573 100.752 14.5573H98.944V18.2533ZM115.207 24.2053C113.809 24.2053 112.7 23.784 111.879 22.9413C111.057 22.088 110.647 20.8186 110.647 19.1333V12.8453H112.583V19.0213C112.583 19.9173 112.764 20.696 113.127 21.3573C113.489 22.0186 114.183 22.3493 115.207 22.3493C116.199 22.3493 116.881 22.0186 117.255 21.3573C117.628 20.696 117.815 19.9173 117.815 19.0213V12.8453H119.719V19.1333C119.719 20.8186 119.308 22.088 118.487 22.9413C117.676 23.784 116.583 24.2053 115.207 24.2053ZM129.6 24.1893C128.715 24.1893 127.952 24.0133 127.312 23.6613C126.683 23.2986 126.203 22.8346 125.872 22.2693C125.552 21.6933 125.392 21.096 125.392 20.4773V20.3813H127.52V20.4773C127.52 20.776 127.595 21.08 127.744 21.3893C127.894 21.688 128.123 21.944 128.432 22.1573C128.752 22.36 129.152 22.4613 129.632 22.4613C130.208 22.4613 130.683 22.312 131.056 22.0133C131.43 21.7146 131.616 21.3146 131.616 20.8133C131.616 20.3866 131.467 20.0453 131.168 19.7893C130.88 19.5333 130.518 19.3626 130.08 19.2773L128.624 18.9893C127.931 18.84 127.264 18.5466 126.624 18.1093C125.995 17.6613 125.68 16.9146 125.68 15.8693C125.68 15.208 125.84 14.632 126.16 14.1413C126.491 13.6506 126.939 13.2773 127.504 13.0213C128.08 12.7546 128.742 12.6213 129.488 12.6213C130.331 12.6213 131.051 12.7866 131.648 13.1173C132.256 13.448 132.715 13.8746 133.024 14.3973C133.334 14.92 133.488 15.4693 133.488 16.0453V16.1093H131.36V16.0613C131.36 15.8053 131.296 15.5386 131.168 15.2613C131.051 14.984 130.843 14.7493 130.544 14.5573C130.256 14.3653 129.878 14.2693 129.408 14.2693C128.864 14.2693 128.432 14.4186 128.112 14.7173C127.792 15.016 127.632 15.3946 127.632 15.8533C127.632 16.2693 127.776 16.6 128.064 16.8453C128.352 17.0906 128.726 17.2613 129.184 17.3573L130.576 17.6453C131.398 17.816 132.112 18.1413 132.72 18.6213C133.339 19.0906 133.648 19.8053 133.648 20.7653C133.648 21.4373 133.472 22.0346 133.12 22.5573C132.779 23.0693 132.299 23.4693 131.68 23.7573C131.072 24.0453 130.379 24.1893 129.6 24.1893ZM143.397 24.1893C142.512 24.1893 141.749 24.0133 141.109 23.6613C140.48 23.2986 140 22.8346 139.669 22.2693C139.349 21.6933 139.189 21.096 139.189 20.4773V20.3813H141.317V20.4773C141.317 20.776 141.392 21.08 141.541 21.3893C141.69 21.688 141.92 21.944 142.229 22.1573C142.549 22.36 142.949 22.4613 143.429 22.4613C144.005 22.4613 144.48 22.312 144.853 22.0133C145.226 21.7146 145.413 21.3146 145.413 20.8133C145.413 20.3866 145.264 20.0453 144.965 19.7893C144.677 19.5333 144.314 19.3626 143.877 19.2773L142.421 18.9893C141.728 18.84 141.061 18.5466 140.421 18.1093C139.792 17.6613 139.477 16.9146 139.477 15.8693C139.477 15.208 139.637 14.632 139.957 14.1413C140.288 13.6506 140.736 13.2773 141.301 13.0213C141.877 12.7546 142.538 12.6213 143.285 12.6213C144.128 12.6213 144.848 12.7866 145.445 13.1173C146.053 13.448 146.512 13.8746 146.821 14.3973C147.13 14.92 147.285 15.4693 147.285 16.0453V16.1093H145.157V16.0613C145.157 15.8053 145.093 15.5386 144.965 15.2613C144.848 14.984 144.64 14.7493 144.341 14.5573C144.053 14.3653 143.674 14.2693 143.205 14.2693C142.661 14.2693 142.229 14.4186 141.909 14.7173C141.589 15.016 141.429 15.3946 141.429 15.8533C141.429 16.2693 141.573 16.6 141.861 16.8453C142.149 17.0906 142.522 17.2613 142.981 17.3573L144.373 17.6453C145.194 17.816 145.909 18.1413 146.517 18.6213C147.136 19.0906 147.445 19.8053 147.445 20.7653C147.445 21.4373 147.269 22.0346 146.917 22.5573C146.576 23.0693 146.096 23.4693 145.477 23.7573C144.869 24.0453 144.176 24.1893 143.397 24.1893ZM160.753 14.5573H157.634V24.0453H155.698V14.5573H152.578V12.8453H160.753V14.5573ZM170.824 24.1733C169.736 24.1733 168.808 23.9226 168.04 23.4213C167.272 22.92 166.691 22.2373 166.296 21.3733C165.901 20.4986 165.704 19.5173 165.704 18.4293C165.704 17.3413 165.901 16.36 166.296 15.4853C166.691 14.6 167.272 13.9013 168.04 13.3893C168.819 12.8773 169.747 12.6213 170.824 12.6213C171.891 12.6213 172.808 12.8773 173.576 13.3893C174.344 13.9013 174.925 14.5946 175.32 15.4693C175.715 16.344 175.912 17.3306 175.912 18.4293C175.912 19.5173 175.715 20.4986 175.32 21.3733C174.925 22.2373 174.344 22.92 173.576 23.4213C172.808 23.9226 171.891 24.1733 170.824 24.1733ZM170.824 22.4133C171.773 22.4133 172.515 22.04 173.048 21.2933C173.581 20.5466 173.848 19.5813 173.848 18.3973C173.848 17.64 173.731 16.9573 173.496 16.3493C173.261 15.7413 172.915 15.2613 172.456 14.9093C172.008 14.5466 171.464 14.3653 170.824 14.3653C170.184 14.3653 169.635 14.5466 169.176 14.9093C168.717 15.2613 168.365 15.7466 168.12 16.3653C167.885 16.9733 167.768 17.656 167.768 18.4133C167.768 19.1706 167.885 19.8533 168.12 20.4613C168.355 21.0586 168.701 21.5333 169.16 21.8853C169.619 22.2373 170.173 22.4133 170.824 22.4133ZM185.248 19.8533H183.6V24.0453H181.664V12.8453H185.696C186.592 12.8453 187.339 13.016 187.936 13.3573C188.534 13.688 188.971 14.1253 189.248 14.6693C189.536 15.2026 189.68 15.7733 189.68 16.3813C189.68 17.128 189.472 17.8053 189.056 18.4133C188.64 19.0106 188.016 19.4266 187.184 19.6613L189.84 24.0453H187.792L185.248 19.8533ZM183.6 18.2533H185.408C186.08 18.2533 186.646 18.1093 187.104 17.8213C187.563 17.5333 187.792 17.0533 187.792 16.3813C187.792 15.7093 187.563 15.24 187.104 14.9733C186.656 14.696 186.091 14.5573 185.408 14.5573H183.6V18.2533ZM201.144 21.1173H197.064L196.072 24.0453H194.104L198.2 12.8453H200.024L204.12 24.0453H202.152L201.144 21.1173ZM200.632 19.6133L199.128 15.2613H199.048L197.576 19.6133H200.632ZM216.05 14.5573H212.93V24.0453H210.994V14.5573H207.874V12.8453H216.05V14.5573ZM221.729 12.8453H223.681V24.0453H221.729V12.8453ZM234.605 24.1733C233.517 24.1733 232.589 23.9226 231.821 23.4213C231.053 22.92 230.472 22.2373 230.077 21.3733C229.683 20.4986 229.485 19.5173 229.485 18.4293C229.485 17.3413 229.683 16.36 230.077 15.4853C230.472 14.6 231.053 13.9013 231.821 13.3893C232.6 12.8773 233.528 12.6213 234.605 12.6213C235.672 12.6213 236.589 12.8773 237.357 13.3893C238.125 13.9013 238.707 14.5946 239.101 15.4693C239.496 16.344 239.693 17.3306 239.693 18.4293C239.693 19.5173 239.496 20.4986 239.101 21.3733C238.707 22.2373 238.125 22.92 237.357 23.4213C236.589 23.9226 235.672 24.1733 234.605 24.1733ZM234.605 22.4133C235.555 22.4133 236.296 22.04 236.829 21.2933C237.363 20.5466 237.629 19.5813 237.629 18.3973C237.629 17.64 237.512 16.9573 237.277 16.3493C237.043 15.7413 236.696 15.2613 236.237 14.9093C235.789 14.5466 235.245 14.3653 234.605 14.3653C233.965 14.3653 233.416 14.5466 232.957 14.9093C232.499 15.2613 232.147 15.7466 231.901 16.3653C231.667 16.9733 231.549 17.656 231.549 18.4133C231.549 19.1706 231.667 19.8533 231.901 20.4613C232.136 21.0586 232.483 21.5333 232.941 21.8853C233.4 22.2373 233.955 22.4133 234.605 22.4133ZM245.446 12.8453H247.686L252.726 21.0213H252.774V12.8453H254.694V24.0613H252.454L247.43 16.0613H247.366V24.0613H245.446V12.8453ZM101.04 31.8453C101.936 31.8453 102.683 32.0266 103.28 32.3893C103.877 32.752 104.315 33.2213 104.592 33.7973C104.88 34.3733 105.024 34.9866 105.024 35.6373C105.024 36.288 104.885 36.9013 104.608 37.4773C104.331 38.0426 103.893 38.5013 103.296 38.8533C102.699 39.2053 101.947 39.3813 101.04 39.3813H98.912V43.0453H97.008V31.8453H101.04ZM100.752 37.7653C101.424 37.7653 101.989 37.6053 102.448 37.2853C102.907 36.9546 103.136 36.4053 103.136 35.6373C103.136 34.88 102.907 34.3466 102.448 34.0373C102 33.7173 101.435 33.5573 100.752 33.5573H98.912V37.7653H100.752ZM116.128 40.1173H112.048L111.056 43.0453H109.088L113.184 31.8453H115.008L119.104 43.0453H117.136L116.128 40.1173ZM115.616 38.6133L114.112 34.2613H114.032L112.56 38.6133H115.616ZM124.588 31.8453H126.54V43.0453H124.588V31.8453ZM132.774 31.8453H135.014L140.054 40.0213H140.102V31.8453H142.022V43.0613H139.782L134.758 35.0613H134.694V43.0613H132.774V31.8453ZM155.847 33.5573H152.727V43.0453H150.791V33.5573H147.671V31.8453H155.847V33.5573ZM161.526 31.8453H163.478V43.0453H161.526V31.8453ZM169.711 31.8453H171.951L176.991 40.0213H177.039V31.8453H178.959V43.0613H176.719L171.695 35.0613H171.631V43.0613H169.711V31.8453ZM189.569 43.1733C188.502 43.1733 187.601 42.9013 186.865 42.3573C186.139 41.8026 185.601 41.088 185.249 40.2133C184.897 39.3386 184.721 38.4106 184.721 37.4293C184.721 36.4266 184.902 35.4826 185.265 34.5973C185.627 33.712 186.187 32.9973 186.945 32.4533C187.702 31.8986 188.641 31.6213 189.761 31.6213C191.019 31.6213 192.043 31.968 192.833 32.6613C193.633 33.3546 194.193 34.24 194.513 35.3173H192.465C192.283 34.6986 191.969 34.2133 191.521 33.8613C191.073 33.5093 190.491 33.3333 189.777 33.3333C188.795 33.3333 188.033 33.7066 187.489 34.4533C186.955 35.2 186.689 36.2026 186.689 37.4613C186.689 38.7626 186.966 39.776 187.521 40.5013C188.086 41.2266 188.865 41.5893 189.857 41.5893C190.731 41.5893 191.409 41.328 191.889 40.8053C192.379 40.272 192.635 39.6106 192.657 38.8213V38.5013H190.049V37.0773H194.529V43.0453H193.057V41.3173H192.929C192.737 41.7013 192.395 42.1066 191.905 42.5333C191.414 42.96 190.635 43.1733 189.569 43.1733Z" fill="black"/>
</g>
<defs>
<clipPath id="clip0_20_2604">
<rect width="256" height="52.0906" fill="white"/>
</clipPath>
</defs>
</svg>
