<svg xmlns="http://www.w3.org/2000/svg" width="150" height="151" fill="none">
  <circle cx="74.808" cy="75.496" r="74.681" fill="#111926" />
  <circle cx="74.808" cy="75.496" r="52.975" stroke="#fff" />
  <circle cx="74.808" cy="75.496" r="74.181" stroke="#fff" />
  <path
    d="m14.18 60.842-.432 1.76-1.11-.274.433-1.759c.067-.272.077-.504.03-.696a.876.876 0 0 0-.287-.468 1.258 1.258 0 0 0-.516-.253 1.433 1.433 0 0 0-.603-.022.986.986 0 0 0-.519.27c-.15.144-.257.352-.324.624l-.311 1.266 5.79 1.423-.35 1.422-6.904-1.696.66-2.689c.133-.54.345-.98.636-1.317a2.16 2.16 0 0 1 1.02-.694 2.292 2.292 0 0 1 1.247-.02c.446.109.806.306 1.082.592.275.285.453.644.534 1.076.083.43.057.914-.075 1.455ZM11.124 55.056l.92-2.487c.188-.51.427-.92.715-1.23.29-.313.62-.513.993-.6.372-.089.777-.052 1.213.11.358.132.642.307.853.524.21.212.36.46.449.743.087.28.128.584.12.914l.068.52-.8 2.161-1.075-.387.595-1.607c.09-.241.12-.457.094-.648a.896.896 0 0 0-.226-.489 1.175 1.175 0 0 0-.485-.32 1.286 1.286 0 0 0-.598-.086.857.857 0 0 0-.491.23c-.143.131-.259.319-.35.563l-.41 1.113 5.59 2.068-.507 1.374-6.668-2.466Zm8.046-1.262-3.534.421.528-1.455 3.486-.46.064.024-.543 1.47ZM21.454 46.362l1.024.508-1.682 3.39-1.024-.508 1.682-3.39Zm-6.814.31 6.369 3.16-.651 1.312-6.37-3.16.652-1.312Zm3.844-1.233.997.495-1.463 2.948-.997-.495 1.463-2.948Zm-2.377-1.724 1.028.51-1.68 3.385-1.028-.51 1.68-3.385ZM17.52 41.413l.68-1.037 5.366 1.339-3.36-4.392.68-1.037 4.533 6.05-.547.832-7.352-1.755Zm-.367.56.678-1.033 4.376 2.604 1.69 1.11-.801 1.22-5.943-3.902Zm3.422-5.213.681-1.037 5.943 3.903-.804 1.224-1.69-1.11-4.13-2.98ZM23.588 33.072l5.495 4.51-.926 1.13-5.495-4.512.926-1.128ZM28.54 27.79l1.027-1.04 3.341 3.302c.389.385.634.792.736 1.222a2.17 2.17 0 0 1-.075 1.278c-.152.422-.414.822-.787 1.199-.373.377-.772.647-1.197.808-.423.16-.85.19-1.28.094-.43-.099-.838-.34-1.227-.724l-3.341-3.302 1.03-1.042 3.34 3.302c.227.224.448.371.663.441.214.07.421.071.621.003.202-.07.395-.198.578-.383.188-.19.313-.384.376-.582a.934.934 0 0 0-.014-.618c-.073-.214-.222-.433-.45-.657l-3.34-3.302ZM31.877 24.82l.977-.764 4.654 2.986-1.778-5.236.977-.764 2.358 7.182-.785.613-6.403-4.016Zm-.527.413.973-.761 3.312 3.868 1.245 1.593-1.15.9-4.38-5.6Zm4.911-3.842.977-.764 4.38 5.6-1.153.902-1.246-1.593-2.958-4.145ZM48.435 20.416a.938.938 0 0 0-.208-.277.647.647 0 0 0-.312-.157 1.82 1.82 0 0 0-.496-.036c-.201.009-.451.039-.75.09-.335.056-.66.092-.977.109a3.77 3.77 0 0 1-.886-.055 2.045 2.045 0 0 1-.74-.305 1.682 1.682 0 0 1-.534-.631 1.666 1.666 0 0 1-.195-.805c.004-.277.07-.546.2-.807.127-.263.311-.51.551-.74.243-.232.536-.436.877-.612.466-.24.916-.366 1.35-.377.433-.011.82.08 1.163.274.344.192.613.476.807.852l-1.293.667a1.096 1.096 0 0 0-.368-.425.892.892 0 0 0-.52-.155c-.194-.002-.41.057-.643.178a1.514 1.514 0 0 0-.511.395.846.846 0 0 0-.198.448.757.757 0 0 0 .085.44c.055.107.13.19.228.25a.99.99 0 0 0 .368.118c.146.02.314.023.505.01.19-.015.404-.043.643-.085.398-.074.76-.112 1.088-.116.33-.006.626.027.886.098.26.07.487.186.683.345.196.16.36.369.495.63.142.274.215.548.22.82.005.272-.055.536-.18.79a2.459 2.459 0 0 1-.548.717c-.24.223-.534.424-.882.603a4.02 4.02 0 0 1-.987.355c-.347.073-.688.09-1.023.05a2.141 2.141 0 0 1-.922-.338c-.281-.184-.514-.454-.698-.81l1.307-.674c.101.197.217.348.348.452.131.105.273.17.426.198.156.026.32.018.494-.024a2.46 2.46 0 0 0 .54-.207c.226-.117.395-.244.507-.382a.772.772 0 0 0 .189-.433.78.78 0 0 0-.089-.438ZM55.825 18.169l.417 1.064-3.524 1.38-.417-1.064 3.524-1.38Zm-5.254-4.35 2.593 6.62-1.364.534-2.593-6.62 1.364-.534Zm3.675 1.67.406 1.037-3.065 1.2-.406-1.036 3.065-1.2Zm-.602-2.874.419 1.069-3.52 1.378-.418-1.068 3.519-1.379ZM55.54 12.07l2.558-.7c.524-.143.996-.187 1.416-.133.422.053.778.205 1.066.457.289.252.494.602.617 1.051.1.368.124.7.07.998-.05.294-.165.56-.343.798a2.81 2.81 0 0 1-.673.63l-.383.358-2.223.608-.31-1.1 1.652-.452a1.34 1.34 0 0 0 .581-.3.896.896 0 0 0 .267-.469c.042-.18.034-.373-.022-.58a1.287 1.287 0 0 0-.279-.537.857.857 0 0 0-.472-.265c-.19-.04-.41-.025-.662.044l-1.144.313 1.574 5.75-1.413.387-1.877-6.857Zm5.71 5.809-2.4-2.629 1.49-.418 2.404 2.567.018.066-1.512.414ZM66.382 15.434l.793-5.815 1.612-.25-1.358 7.405-1.061.165.014-1.505Zm-2.386-5.322 2.511 5.303.478 1.428-1.07.166-3.521-6.649 1.602-.248ZM72.057 9.252l.438 7.096-1.457.09-.438-7.096 1.457-.09ZM79.351 14.04l1.46.044a2.65 2.65 0 0 1-.435 1.262 2.358 2.358 0 0 1-.997.839c-.42.195-.92.284-1.503.267a3.06 3.06 0 0 1-1.218-.272 2.608 2.608 0 0 1-.907-.711 3.047 3.047 0 0 1-.548-1.092 4.645 4.645 0 0 1-.157-1.417l.015-.493c.016-.52.099-.988.248-1.404.153-.418.362-.772.629-1.06.269-.288.587-.507.953-.655a2.967 2.967 0 0 1 1.217-.202c.592.018 1.089.14 1.489.368.403.227.711.533.924.917.217.384.34.818.371 1.3l-1.464-.044a1.885 1.885 0 0 0-.149-.732.97.97 0 0 0-.43-.468c-.192-.11-.45-.17-.776-.18a1.413 1.413 0 0 0-.644.117c-.185.086-.342.22-.471.401a2.05 2.05 0 0 0-.3.695 4.864 4.864 0 0 0-.118.983l-.015.502c-.011.368.007.693.053.974.047.279.125.515.233.71.111.193.256.34.436.444.182.1.404.154.664.162.306.01.56-.032.761-.123.201-.092.357-.232.467-.421.113-.189.184-.426.212-.712ZM86.904 16.192l-.155 1.132-3.75-.516.157-1.132 3.748.516Zm-2.46-6.362-.97 7.043-1.451-.2.969-7.042 1.451.2Zm2.39 3.252-.151 1.103-3.26-.449.151-1.103 3.26.45Zm.88-2.802-.157 1.137-3.744-.515.156-1.137 3.744.515ZM91.968 16.713a.941.941 0 0 0 .025-.346.646.646 0 0 0-.132-.323 1.82 1.82 0 0 0-.352-.353 6.022 6.022 0 0 0-.625-.424 8.97 8.97 0 0 1-.808-.559 3.77 3.77 0 0 1-.633-.622 2.047 2.047 0 0 1-.358-.715 1.682 1.682 0 0 1 .011-.827c.07-.288.197-.533.38-.736.185-.207.412-.366.68-.478.27-.115.57-.18.903-.197.335-.015.69.023 1.063.114.509.124.93.325 1.266.6.334.277.567.6.698.97.134.371.15.763.05 1.174l-1.413-.345c.049-.203.05-.39.001-.563a.892.892 0 0 0-.29-.458c-.146-.13-.347-.225-.603-.288a1.514 1.514 0 0 0-.645-.037.845.845 0 0 0-.443.209.757.757 0 0 0-.225.387.623.623 0 0 0 .008.339.99.99 0 0 0 .2.33c.097.111.222.224.375.338.153.115.334.234.541.358.349.206.648.415.898.627.253.212.454.43.604.655.15.224.246.46.29.709.042.248.03.515-.04.8-.074.3-.198.554-.373.763a1.705 1.705 0 0 1-.654.478c-.262.11-.556.171-.884.182-.328.01-.681-.03-1.06-.123a4.017 4.017 0 0 1-.978-.38 3.153 3.153 0 0 1-.806-.634 2.138 2.138 0 0 1-.473-.86c-.092-.324-.09-.68.004-1.069l1.428.349a1.374 1.374 0 0 0-.034.57c.03.164.095.307.192.428.101.122.23.224.388.306.16.083.342.149.545.198.247.06.457.075.633.044a.772.772 0 0 0 .426-.202.78.78 0 0 0 .22-.389ZM104.402 19.506l-1.131 2.58c-.155.079-.37.143-.644.193a3.435 3.435 0 0 1-.978.003c-.378-.044-.804-.17-1.278-.379a3.375 3.375 0 0 1-1.06-.71 2.71 2.71 0 0 1-.625-1.004 3.016 3.016 0 0 1-.142-1.235c.038-.449.166-.924.385-1.425l.179-.407c.22-.5.479-.918.778-1.253.302-.333.633-.58.992-.743.359-.163.737-.24 1.132-.234.395.006.797.098 1.206.277.566.249.991.545 1.273.89.284.34.451.715.499 1.124.053.407.01.829-.128 1.266l-1.302-.57c.064-.236.086-.455.065-.66a1.058 1.058 0 0 0-.229-.559c-.13-.167-.33-.31-.601-.428a1.386 1.386 0 0 0-.66-.124 1.294 1.294 0 0 0-.613.205 2.168 2.168 0 0 0-.559.534 4.23 4.23 0 0 0-.49.862l-.182.416a4.1 4.1 0 0 0-.298.946c-.048.288-.047.55.003.785.054.234.157.437.308.61.152.173.355.315.608.426.212.093.395.152.551.178.159.027.293.034.401.021.113-.015.204-.035.273-.062l.505-1.154-1.225-.537.42-.957 2.567 1.125ZM110.919 19.39l1.262.733-2.36 4.061c-.275.473-.608.812-.998 1.018-.388.208-.807.29-1.257.247-.446-.041-.899-.195-1.358-.462-.458-.266-.819-.585-1.082-.956a2.2 2.2 0 0 1-.411-1.216c-.012-.44.12-.896.394-1.369l2.361-4.061 1.266.736-2.36 4.061c-.16.276-.248.527-.262.752a.959.959 0 0 0 .153.602c.118.178.29.333.515.464.231.134.451.207.658.218a.934.934 0 0 0 .595-.168c.189-.124.363-.324.524-.6l2.36-4.06ZM114.032 21.458l2.127 1.583c.436.325.762.669.979 1.033.218.365.317.74.297 1.122-.021.382-.17.76-.448 1.133-.228.306-.475.53-.743.67a1.836 1.836 0 0 1-.84.222 2.814 2.814 0 0 1-.911-.142l-.517-.081-1.849-1.376.674-.923 1.375 1.023c.206.154.404.245.595.273.19.028.367.002.533-.079.167-.078.315-.203.443-.375.136-.183.22-.366.251-.55a.85.85 0 0 0-.082-.536 1.423 1.423 0 0 0-.442-.493l-.952-.709-3.559 4.783-1.175-.874 4.244-5.704Zm-1.056 8.077.592-3.51 1.247.916-.541 3.475-.04.054-1.258-.935ZM121.319 29.077l-5.442 2.977-1.136-1.066 6.789-3.38.723.679-.934.79Zm-2.859 5.398 2.616-5.625.718-.994.73.684-2.924 7.004-1.14-1.069Zm1.746-1.99-.785.836-2.739-2.568.784-.837 2.74 2.568ZM129.22 36.044l-5.434 4.584-.945-1.12 1.801-5.256-3.643 3.073-.944-1.12 5.434-4.584.944 1.12-1.801 5.263 3.646-3.076.942 1.116ZM132.283 40.625l-5.917 3.94-.81-1.216 5.918-3.94.809 1.216Zm1.213 1.82-.956.636-3.214-4.828.955-.636 3.215 4.829ZM131.257 51.062l-1.011.532-1.763-3.348 1.011-.532 1.763 3.348Zm3.74-5.705-6.291 3.312-.682-1.296 6.29-3.312.683 1.296Zm-1.252 3.838-.985.518-1.533-2.912.985-.518 1.533 2.912Zm2.79-.917-1.016.534-1.76-3.344 1.015-.534 1.761 3.344ZM133.528 56.744l-1.059.43-1.423-3.507 1.059-.43 1.423 3.507Zm4.286-5.306-6.588 2.673-.551-1.358 6.588-2.673.551 1.358Zm-1.626 3.694-1.032.419-1.237-3.05 1.032-.418 1.237 3.05Zm2.867-.636-1.064.432-1.421-3.502 1.064-.432 1.421 3.502ZM133.39 60.443l-.427-1.488 1.101-.305.424 1.478c.106.37.278.657.516.863.242.205.542.325.901.361.36.04.769-.007 1.226-.138l.333-.095c.35-.1.648-.227.892-.378.246-.148.439-.32.579-.516.14-.196.225-.412.256-.648a1.82 1.82 0 0 0-.066-.763l-.439-1.53 1.103-.316.439 1.53c.131.457.172.897.124 1.32-.044.426-.17.82-.378 1.18a3.07 3.07 0 0 1-.848.94c-.353.267-.774.47-1.262.61l-.324.093c-.485.14-.95.19-1.394.151a2.969 2.969 0 0 1-2.163-1.148 3.49 3.49 0 0 1-.593-1.201Zm6.636-2.65-6.834 1.96-.404-1.408 6.834-1.96.404 1.409ZM135.537 90.362l.433-1.76 1.109.273-.432 1.76c-.067.271-.077.503-.031.696.05.193.146.349.288.468.142.118.314.202.516.252.205.05.406.058.603.023a.99.99 0 0 0 .519-.27c.149-.144.257-.353.324-.624l.311-1.266-5.79-1.423.35-1.423 6.904 1.697-.661 2.689c-.133.54-.344.98-.635 1.317a2.162 2.162 0 0 1-1.02.694 2.293 2.293 0 0 1-1.247.02c-.446-.109-.807-.306-1.082-.592a2.066 2.066 0 0 1-.535-1.077c-.082-.429-.057-.914.076-1.454ZM138.594 96.148l-.92 2.487c-.188.51-.427.92-.715 1.23a1.94 1.94 0 0 1-.993.6c-.373.088-.777.051-1.214-.11-.357-.132-.641-.307-.852-.524a1.835 1.835 0 0 1-.449-.744 2.796 2.796 0 0 1-.12-.913l-.068-.52.8-2.162 1.075.387-.595 1.608c-.089.241-.121.457-.094.647a.9.9 0 0 0 .225.49c.122.138.284.245.486.32.213.079.413.107.598.086a.856.856 0 0 0 .491-.23c.142-.131.259-.32.349-.563l.412-1.113-5.592-2.069.508-1.374 6.668 2.467Zm-8.047 1.261 3.535-.42-.528 1.454-3.486.46-.065-.024.544-1.47ZM128.263 104.841l-1.023-.508 1.682-3.39 1.023.508-1.682 3.39Zm6.815-.309-6.369-3.16.651-1.312 6.369 3.16-.651 1.312Zm-3.844 1.232-.997-.494 1.462-2.948.998.494-1.463 2.948Zm2.377 1.725-1.028-.51 1.68-3.386 1.027.51-1.679 3.386ZM132.198 109.791l-.681 1.036-5.366-1.338 3.361 4.391-.681 1.037-4.532-6.049.546-.833 7.353 1.756Zm.367-.559-.678 1.032-4.376-2.605-1.69-1.109.801-1.221 5.943 3.903Zm-3.423 5.212-.68 1.036-5.943-3.902.804-1.224 1.69 1.109 4.129 2.981ZM126.13 118.132l-5.495-4.511.926-1.128 5.495 4.51-.926 1.129ZM121.177 123.414l-1.026 1.039-3.341-3.302c-.389-.384-.634-.791-.736-1.221a2.167 2.167 0 0 1 .075-1.278c.152-.422.414-.822.787-1.199a3.377 3.377 0 0 1 1.197-.809c.422-.159.849-.19 1.28-.094.429.099.838.341 1.227.725l3.341 3.302-1.029 1.042-3.342-3.302c-.227-.224-.447-.371-.662-.441a.958.958 0 0 0-.621-.004 1.526 1.526 0 0 0-.578.384c-.188.19-.313.384-.376.582a.931.931 0 0 0 .014.618c.072.214.222.432.449.657l3.341 3.301ZM117.841 126.383l-.977.764-4.654-2.986 1.777 5.237-.976.764-2.358-7.182.785-.614 6.403 4.017Zm.527-.412-.973.761-3.312-3.869-1.246-1.592 1.15-.9 4.381 5.6Zm-4.911 3.842-.977.764-4.381-5.6 1.154-.902 1.246 1.592 2.958 4.146ZM101.282 130.787a.939.939 0 0 0 .209.277c.08.076.184.129.312.158.13.032.295.044.496.035.201-.008.451-.038.75-.09.334-.055.66-.091.977-.108.315-.016.61.002.885.054.275.057.521.158.74.306.216.148.394.359.534.631.136.263.201.531.196.805-.004.277-.07.546-.2.806a2.565 2.565 0 0 1-.552.741 3.743 3.743 0 0 1-.876.611c-.466.241-.916.366-1.35.378a2.199 2.199 0 0 1-1.163-.274 1.996 1.996 0 0 1-.807-.853l1.293-.667c.095.185.218.327.368.426a.886.886 0 0 0 .519.155c.195.002.41-.057.644-.178.226-.117.396-.248.511-.395a.844.844 0 0 0 .197-.448.756.756 0 0 0-.084-.44.623.623 0 0 0-.228-.251.997.997 0 0 0-.368-.118 2.44 2.44 0 0 0-.505-.009c-.19.014-.405.043-.643.085a6.526 6.526 0 0 1-1.088.116 3.148 3.148 0 0 1-.886-.098 1.83 1.83 0 0 1-.683-.345 1.946 1.946 0 0 1-.495-.63 1.85 1.85 0 0 1-.22-.82 1.709 1.709 0 0 1 .18-.791 2.45 2.45 0 0 1 .548-.716c.24-.223.534-.424.881-.603.313-.161.642-.28.987-.355a3.14 3.14 0 0 1 1.024-.05c.332.041.64.153.921.338.282.184.515.454.698.81l-1.306.674a1.384 1.384 0 0 0-.348-.453.941.941 0 0 0-.427-.197 1.239 1.239 0 0 0-.493.023 2.446 2.446 0 0 0-.541.208 1.557 1.557 0 0 0-.506.382.769.769 0 0 0-.101.87ZM93.893 133.035l-.417-1.064L97 130.59l.417 1.064-3.523 1.381Zm5.254 4.35-2.593-6.62 1.364-.534 2.593 6.619-1.364.535Zm-3.675-1.671-.406-1.036 3.064-1.201.407 1.037-3.065 1.2Zm.602 2.874-.419-1.068 3.52-1.378.418 1.068-3.52 1.378ZM94.178 139.133l-2.558.7c-.524.143-.996.188-1.416.134a1.945 1.945 0 0 1-1.067-.457c-.288-.252-.493-.603-.616-1.052-.1-.367-.124-.7-.071-.998.051-.294.166-.56.344-.797.175-.234.4-.444.673-.63l.383-.358 2.223-.608.31 1.099-1.652.453a1.335 1.335 0 0 0-.581.3.9.9 0 0 0-.267.468c-.042.18-.034.374.022.581.06.22.153.399.279.537a.86.86 0 0 0 .472.265c.19.039.41.025.661-.044l1.145-.313-1.574-5.751 1.413-.386 1.877 6.857Zm-5.71-5.808 2.4 2.628-1.49.418-2.404-2.567-.018-.066 1.511-.413ZM83.336 135.769l-.794 5.815-1.611.25 1.358-7.405 1.061-.164-.014 1.504Zm2.386 5.323-2.511-5.303-.479-1.428 1.072-.166 3.52 6.648-1.602.249ZM77.66 141.951l-.437-7.096 1.457-.089.438 7.095-1.457.09ZM70.366 137.164l-1.459-.044c.044-.478.189-.898.434-1.262.243-.364.575-.644.998-.839.42-.196.92-.285 1.503-.267.456.014.862.104 1.218.272a2.6 2.6 0 0 1 .906.711c.245.304.428.668.548 1.092.121.423.173.896.157 1.416l-.015.493a4.54 4.54 0 0 1-.248 1.404 3.113 3.113 0 0 1-.628 1.061c-.27.288-.587.506-.953.655a2.984 2.984 0 0 1-1.218.202c-.592-.018-1.088-.141-1.488-.368a2.348 2.348 0 0 1-.925-.917 3.01 3.01 0 0 1-.37-1.301l1.464.044c.007.287.057.531.148.733.092.205.235.36.43.467.193.11.452.17.777.18a1.4 1.4 0 0 0 .643-.117c.185-.085.343-.219.472-.401.13-.181.229-.413.3-.694.067-.278.106-.606.117-.983l.016-.503a5.056 5.056 0 0 0-.054-.974 2.223 2.223 0 0 0-.232-.71 1.176 1.176 0 0 0-.436-.443 1.462 1.462 0 0 0-.664-.162c-.306-.01-.56.031-.761.123a1.013 1.013 0 0 0-.467.421 1.689 1.689 0 0 0-.213.711ZM62.813 135.012l.156-1.132 3.749.516-.156 1.132-3.749-.516Zm2.462 6.361.969-7.043 1.451.2-.97 7.043-1.45-.2Zm-2.392-3.251.152-1.103 3.26.448-.152 1.103-3.26-.448Zm-.878 2.801.156-1.136 3.744.515-.156 1.137-3.744-.516ZM57.75 134.49a.943.943 0 0 0-.025.346c.01.11.054.218.132.324.078.109.195.227.352.352.157.126.365.267.625.424.288.178.558.364.808.559.248.195.458.402.633.622.17.223.289.461.358.716.065.254.061.529-.011.827-.07.287-.197.533-.381.736-.185.206-.411.365-.68.477-.27.116-.57.181-.902.197a3.7 3.7 0 0 1-1.063-.114c-.51-.124-.931-.324-1.266-.6a2.194 2.194 0 0 1-.698-.97 1.993 1.993 0 0 1-.05-1.173l1.413.345c-.05.202-.05.39-.001.563a.895.895 0 0 0 .29.458c.146.129.347.225.603.288.247.06.462.072.645.036a.845.845 0 0 0 .443-.208.757.757 0 0 0 .225-.388.62.62 0 0 0-.008-.338.988.988 0 0 0-.2-.331 2.504 2.504 0 0 0-.376-.338 6.667 6.667 0 0 0-.54-.358 6.41 6.41 0 0 1-.898-.626 3.178 3.178 0 0 1-.604-.655 1.836 1.836 0 0 1-.29-.709 1.95 1.95 0 0 1 .04-.8c.073-.3.198-.555.372-.763a1.71 1.71 0 0 1 .655-.479c.262-.11.556-.171.884-.181.327-.011.68.031 1.06.123.342.084.668.21.978.38.31.172.578.384.805.634.224.249.382.535.474.859.092.324.09.681-.005 1.07l-1.427-.349c.052-.215.063-.405.033-.57a.937.937 0 0 0-.192-.429c-.1-.122-.23-.223-.387-.306a2.53 2.53 0 0 0-.545-.198 1.566 1.566 0 0 0-.633-.044.77.77 0 0 0-.647.591ZM45.316 131.697l1.131-2.58c.155-.078.37-.142.644-.192.273-.048.599-.049.977-.004.379.045.805.172 1.279.379.42.185.773.421 1.06.71.284.291.492.626.625 1.004.13.377.177.789.141 1.235-.037.45-.165.925-.385 1.426l-.178.407c-.22.5-.479.918-.778 1.252a3.03 3.03 0 0 1-.992.744c-.36.162-.737.24-1.132.234a3.109 3.109 0 0 1-1.206-.278c-.566-.248-.99-.544-1.274-.889a2.123 2.123 0 0 1-.498-1.124 2.92 2.92 0 0 1 .128-1.266l1.302.57a1.815 1.815 0 0 0-.066.659c.021.205.097.391.23.559.13.167.33.31.601.429.224.098.444.139.66.124.212-.014.416-.082.613-.206.196-.123.383-.301.559-.533.176-.232.34-.52.49-.862l.182-.416a4.09 4.09 0 0 0 .297-.947c.049-.288.048-.55-.002-.785a1.383 1.383 0 0 0-.309-.609 1.697 1.697 0 0 0-.607-.426 2.387 2.387 0 0 0-.551-.178 1.435 1.435 0 0 0-.402-.021 1.146 1.146 0 0 0-.272.062l-.506 1.153 1.226.537-.42.957-2.567-1.125ZM38.8 131.814l-1.263-.733 2.36-4.061c.275-.473.607-.813.998-1.019a2.18 2.18 0 0 1 1.256-.247c.447.042.9.196 1.358.462.46.267.82.585 1.082.956.26.37.397.775.412 1.217.012.439-.12.896-.395 1.368l-2.36 4.062-1.266-.736 2.36-4.062c.16-.275.247-.526.261-.751a.961.961 0 0 0-.152-.603 1.524 1.524 0 0 0-.516-.463 1.492 1.492 0 0 0-.658-.219.933.933 0 0 0-.594.169c-.189.123-.364.323-.524.599l-2.36 4.061ZM35.686 129.745l-2.127-1.583c-.436-.324-.763-.668-.979-1.032a1.948 1.948 0 0 1-.297-1.122c.02-.382.17-.76.448-1.134.227-.305.475-.529.743-.67.263-.141.543-.215.84-.221.292-.006.596.042.91.142l.518.081 1.85 1.376-.675.922-1.375-1.023a1.345 1.345 0 0 0-.595-.272.896.896 0 0 0-.533.078 1.169 1.169 0 0 0-.444.376c-.136.183-.22.366-.25.55a.855.855 0 0 0 .081.535c.086.174.234.338.443.494l.952.708 3.559-4.783 1.175.875-4.244 5.703Zm1.056-8.076-.592 3.51-1.247-.916.54-3.475.041-.055 1.258.936ZM28.4 122.127l5.44-2.977 1.137 1.065-6.79 3.38-.723-.678.935-.79Zm2.858-5.398-2.617 5.625-.717.994-.73-.685 2.924-7.003 1.14 1.069Zm-1.746 1.99.785-.837 2.74 2.568-.786.838-2.739-2.569ZM20.498 115.16l5.434-4.584.945 1.119-1.801 5.257 3.643-3.073.944 1.119-5.434 4.584-.945-1.119 1.802-5.263-3.646 3.076-.942-1.116ZM17.434 110.579l5.918-3.94.81 1.215-5.918 3.94-.81-1.215Zm-1.212-1.821.955-.636 3.215 4.829-.955.636-3.215-4.829ZM18.46 100.142l1.011-.533 1.763 3.349-1.01.532-1.764-3.348Zm-3.74 5.705 6.291-3.313.683 1.296-6.29 3.313-.683-1.296Zm1.252-3.838.986-.519 1.533 2.912-.985.519-1.534-2.912Zm-2.789.917 1.015-.535 1.761 3.344-1.015.535-1.761-3.344ZM16.19 94.46l1.059-.43 1.423 3.506-1.059.43-1.423-3.507Zm-4.286 5.306 6.588-2.673.55 1.357-6.587 2.673-.55-1.357Zm1.626-3.695 1.031-.418 1.238 3.05-1.032.418-1.237-3.05Zm-2.867.636 1.063-.431 1.421 3.502-1.063.431-1.42-3.502ZM16.328 90.76l.427 1.489-1.101.305-.424-1.478c-.106-.37-.278-.657-.517-.863a1.6 1.6 0 0 0-.9-.362c-.36-.039-.77.007-1.226.138l-.333.096c-.35.1-.648.226-.893.378-.245.148-.438.32-.578.516a1.41 1.41 0 0 0-.256.647c-.034.237-.012.491.066.763l.439 1.53-1.103.317-.439-1.53a3.382 3.382 0 0 1-.124-1.32c.043-.426.17-.82.377-1.18.208-.362.491-.675.849-.94.353-.267.774-.47 1.262-.61l.324-.094c.485-.139.95-.189 1.394-.15a2.968 2.968 0 0 1 2.163 1.148c.263.337.46.737.593 1.2Zm-6.636 2.65 6.834-1.96.404 1.409-6.834 1.959-.404-1.408ZM61.471 61.335l-5.534-.804-2.475-5.015a.925.925 0 0 0-1.66 0l-2.475 5.015-5.534.804a.925.925 0 0 0-.513 1.58l4.004 3.903-.945 5.511a.925.925 0 0 0 1.343.976l4.95-2.602 4.95 2.602a.926.926 0 0 0 1.343-.976l-.945-5.511 4.004-3.904a.926.926 0 0 0-.513-1.579Zm22.767 0-5.534-.804-2.475-5.015a.926.926 0 0 0-1.66 0l-2.475 5.015-5.534.804a.926.926 0 0 0-.513 1.579l4.004 3.903-.945 5.512a.925.925 0 0 0 1.343.976l4.95-2.602 4.95 2.602a.926.926 0 0 0 1.343-.976l-.945-5.512 4.004-3.903a.927.927 0 0 0-.513-1.579Zm22.359.63a.931.931 0 0 0-.748-.63l-5.534-.804-2.475-5.015a.926.926 0 0 0-1.66 0l-2.475 5.015-5.534.804a.924.924 0 0 0-.513 1.58l4.005 3.902-.946 5.512a.926.926 0 0 0 1.344.976l4.95-2.602 4.949 2.602a.928.928 0 0 0 1.289-.47.919.919 0 0 0 .054-.506l-.945-5.511 4.004-3.904a.92.92 0 0 0 .235-.949ZM72.855 83.293l-5.535-.804-2.474-5.015a.926.926 0 0 0-1.66 0L60.71 82.49l-5.535.804a.925.925 0 0 0-.513 1.58l4.005 3.903-.946 5.512a.926.926 0 0 0 1.344.976l4.95-2.603 4.95 2.603a.925.925 0 0 0 1.343-.976l-.946-5.512 4.005-3.904a.925.925 0 0 0-.513-1.579Zm22.358.63a.926.926 0 0 0-.747-.63l-5.534-.804-2.475-5.015a.925.925 0 0 0-1.66 0l-2.475 5.015-5.534.804a.926.926 0 0 0-.513 1.58l4.004 3.903-.945 5.512a.926.926 0 0 0 1.343.976l4.95-2.603 4.95 2.603a.926.926 0 0 0 1.343-.976l-.946-5.512 4.005-3.904a.926.926 0 0 0 .234-.949Z"
    fill="#fff" />
  <circle cx="10.269" cy="75.496" r="2.766" fill="#fff" />
  <circle cx="138.426" cy="75.496" r="2.766" fill="#fff" />
</svg>